<svg width="23" height="22" viewBox="0 0 23 22" fill="none" xmlns="http://www.w3.org/2000/svg">
<path fill-rule="evenodd" clip-rule="evenodd" d="M17.5395 9.58642C17.5395 10.5307 17.3451 11.4657 16.9673 12.3381C16.5895 13.2105 16.0358 14.0032 15.3377 14.6709C14.6397 15.3386 13.811 15.8682 12.8989 16.2296C11.9869 16.591 11.0094 16.7769 10.0222 16.7769C9.03497 16.7769 8.05745 16.591 7.1454 16.2296C6.23335 15.8682 5.40464 15.3386 4.70659 14.6709C4.00854 14.0032 3.45481 13.2105 3.07703 12.3381C2.69924 11.4657 2.5048 10.5307 2.5048 9.58642C2.5048 7.67938 3.29681 5.85044 4.70659 4.50195C6.11637 3.15347 8.02844 2.3959 10.0222 2.3959C12.0159 2.3959 13.928 3.15347 15.3377 4.50195C16.7475 5.85044 17.5395 7.67938 17.5395 9.58642ZM16.1697 17.1604C14.1557 18.656 11.6215 19.3612 9.083 19.1325C6.54452 18.9037 4.19261 17.7582 2.50605 15.9291C0.819499 14.1 -0.0749066 11.7249 0.00491798 9.28722C0.0847426 6.84955 1.1328 4.53261 2.93572 2.80808C4.73864 1.08354 7.1609 0.0810581 9.70936 0.00470415C12.2578 -0.0716498 14.7409 0.783869 16.6532 2.3971C18.5654 4.01032 19.763 6.25998 20.0021 8.68809C20.2413 11.1162 19.504 13.5402 17.9405 15.4667L22.6012 19.9248C22.7243 20.0345 22.8231 20.1668 22.8915 20.3138C22.96 20.4608 22.9968 20.6195 22.9998 20.7804C23.0028 20.9414 22.9718 21.1012 22.9088 21.2504C22.8458 21.3996 22.752 21.5352 22.633 21.649C22.5141 21.7628 22.3723 21.8525 22.2163 21.9128C22.0603 21.9731 21.8932 22.0027 21.725 21.9998C21.5568 21.997 21.3909 21.9618 21.2372 21.8963C21.0835 21.8308 20.9452 21.7363 20.8305 21.6186L16.1697 17.1604Z" fill="white"/>
</svg>
