<svg width="28" height="29" viewBox="0 0 28 29" fill="none" xmlns="http://www.w3.org/2000/svg">
<path d="M13.8012 12.5491C14.546 12.5491 15.2835 12.4053 15.9716 12.126C16.6597 11.8467 17.285 11.4373 17.8116 10.9212C18.3383 10.4051 18.756 9.79244 19.0411 9.11813C19.3261 8.44381 19.4728 7.72109 19.4728 6.99122C19.4728 6.26135 19.3261 5.53863 19.0411 4.86431C18.756 4.19 18.3383 3.57731 17.8116 3.06121C17.285 2.54512 16.6597 2.13573 15.9716 1.85642C15.2835 1.57711 14.546 1.43335 13.8012 1.43335C12.2971 1.43335 10.8545 2.01891 9.79086 3.06121C8.72724 4.10352 8.1297 5.51718 8.1297 6.99122C8.1297 8.46526 8.72724 9.87892 9.79086 10.9212C10.8545 11.9635 12.2971 12.5491 13.8012 12.5491ZM1.64795 26.6139V27.5667H25.9545V26.6139C25.9545 23.0569 25.9545 21.2783 25.248 19.9191C24.6266 18.7239 23.6351 17.7523 22.4155 17.1433C21.0284 16.4509 19.2135 16.4509 15.5837 16.4509H12.0188C8.38897 16.4509 6.57408 16.4509 5.18699 17.1433C3.96742 17.7523 2.97588 18.7239 2.35446 19.9191C1.64795 21.2783 1.64795 23.0569 1.64795 26.6139Z" stroke="url(#paint0_linear_43_1030)" stroke-width="2.3" stroke-linecap="round" stroke-linejoin="round"/>
<defs>
<linearGradient id="paint0_linear_43_1030" x1="13.8012" y1="1.43335" x2="13.8012" y2="27.5667" gradientUnits="userSpaceOnUse">
<stop stop-color="#BDBDBD"/>
<stop offset="1" stop-color="#575757"/>
</linearGradient>
</defs>
</svg>
