<svg width="107" height="107" viewBox="0 0 107 107" fill="none" xmlns="http://www.w3.org/2000/svg">
<circle cx="53.5" cy="53.5" r="53.5" fill="white"/>
<path d="M19.2643 88.9644C14.4888 84.3521 10.6797 78.8348 8.05928 72.7346C5.43883 66.6344 4.05952 60.0734 4.00183 53.4345C3.94413 46.7955 5.20922 40.2115 7.72326 34.0667C10.2373 27.9219 13.95 22.3393 18.6446 17.6447C23.3392 12.95 28.9218 9.23737 35.0666 6.72333C41.2115 4.20928 47.7954 2.9442 54.4344 3.00189C61.0734 3.05958 67.6344 4.43889 73.7346 7.05934C79.8348 9.67979 85.352 13.4889 89.9643 18.2644C99.0723 27.6945 104.112 40.3246 103.998 53.4345C103.884 66.5443 98.6257 79.0849 89.3553 88.3553C80.0849 97.6257 67.5442 102.884 54.4344 102.998C41.3246 103.112 28.6945 98.0723 19.2643 88.9644ZM49.6143 58.6144V78.6144H59.6143V48.6144H49.6143V58.6144ZM49.6143 28.6144V38.6144H59.6143V28.6144H49.6143Z" fill="#0088F4"/>
</svg>
