<svg width="26" height="26" viewBox="0 0 26 26" fill="none" xmlns="http://www.w3.org/2000/svg">
<path d="M25.4522 22.8255C25.801 23.1742 25.9969 23.6472 25.9969 24.1404C25.9969 24.6336 25.801 25.1066 25.4522 25.4553C25.1035 25.8041 24.6304 26 24.1372 26C23.644 26 23.171 25.8041 22.8222 25.4553L13 15.6306L3.17468 25.4523C2.82592 25.801 2.3529 25.9969 1.85968 25.9969C1.36646 25.9969 0.893447 25.801 0.544688 25.4523C0.19593 25.1035 5.1969e-09 24.6305 0 24.1373C-5.1969e-09 23.6441 0.19593 23.1712 0.544688 22.8224L10.37 13.0008L0.547782 3.17603C0.199024 2.8273 0.00309417 2.35431 0.00309417 1.86112C0.00309418 1.36793 0.199024 0.89494 0.547782 0.546203C0.89654 0.197465 1.36956 0.0015467 1.86278 0.0015467C2.35599 0.00154669 2.82901 0.197465 3.17777 0.546203L13 10.3709L22.8253 0.544655C23.1741 0.195918 23.6471 -8.21653e-09 24.1403 0C24.6335 8.21653e-09 25.1066 0.195918 25.4553 0.544655C25.8041 0.893393 26 1.36638 26 1.85957C26 2.35276 25.8041 2.82575 25.4553 3.17449L15.63 13.0008L25.4522 22.8255Z" fill="white"/>
</svg>
